# AST/ASF file generated using VICON BodyLanguage
# -----------------------------------------------
:version 1.10
:name VICON
:units
  mass 1.0
  length 0.45
  angle deg
:documentation
   .ast/.asf automatically generated from VICON data using
   VICON BodyBuilder and BodyLanguage model FoxedUp or BRILLIANT.MOD
:root
   order TX TY TZ RX RY RZ
   axis XYZ
   position 0 0 0  
   orientation 0 0 0 
:bonedata
  begin
     id 1 
     name lhipjoint
     direction 0.643272 -0.706573 0.294883 
     length 2.58915 
     axis 0 0 0  XYZ
  end
  begin
     id 2 
     name lfemur
     direction 0.34202 -0.939693 0  
     length 7.06802  
     axis 0 0 20  XYZ
    dof rx ry rz
    limits (-160.0 20.0)
           (-70.0 70.0)
           (-60.0 70.0)
  end
  begin
     id 3 
     name ltibia
     direction 0.34202 -0.939693 0   
     length 7.94147   
     axis 0 0 20   XYZ
    dof rx
    limits (-10.0 170.0)
  end
  begin
     id 4 
     name lfoot
     direction 0.0435058 -0.119531 0.991877   
     length 1.8399   
     axis -90 7.62852e-016 20   XYZ
    dof rx rz
    limits (-45.0 90.0)
           (-70.0 20.0)
  end
  begin
     id 5 
     name ltoes
     direction 1.53505e-011 -4.22157e-011 1   
     length 0.934412   
     axis -90 7.62852e-016 20   XYZ
    dof rx
    limits (-90.0 20.0)
  end
  begin
     id 6 
     name rhipjoint
     direction -0.636801 -0.711547 0.296959   
     length 2.57105  
     axis 0 0 0  XYZ 
  end
  begin
     id 7 
     name rfemur
     direction -0.34202 -0.939693 0   
     length 7.03285   
     axis 0 0 -20   XYZ
    dof rx ry rz
    limits (-160.0 20.0)
           (-70.0 70.0)
           (-70.0 60.0)
  end
  begin
     id 8 
     name rtibia
     direction -0.34202 -0.939693 0   
     length 7.99111   
     axis 0 0 -20   XYZ
    dof rx
    limits (-10.0 170.0)
 end
 begin
     id 9 
     name rfoot
     direction -0.0783088 -0.215152 0.973436   
     length 1.98785  
     axis -90 -7.62852e-016 -20   XYZ
    dof rx rz
    limits (-45.0 90.0)
           (-20.0 70.0)
  end
  begin
     id 10 
     name rtoes
     direction -1.53606e-011 -4.21943e-011 1   
     length 1.001   
     axis -90 -7.62852e-016 -20   XYZ
    dof rx
    limits (-90.0 20.0)
  end
  begin
     id 11 
     name lowerback
     direction 0.00141527 0.998403 -0.0564763   
     length 2.30486   
     axis 0 0 0   XYZ
    dof rx ry rz
    limits (-20.0 45.0)
           (-30.0 30.0)
           (-30.0 30.0)
  end
  begin
     id 12 
     name upperback
     direction 0.0125137 0.999915 0.00361315   
     length 2.30697   
     axis 0 0 0   XYZ
    dof rx ry rz
    limits (-20.0 45.0)
           (-30.0 30.0)
           (-30.0 30.0)
  end
  begin
     id 13 
     name thorax
     direction 0.0136417 0.999471 0.0295116   
     length 2.31005   
     axis 0 0 0   XYZ
    dof rx ry rz
    limits (-20.0 45.0)
           (-30.0 30.0)
           (-30.0 30.0)
  end
  begin
     id 14 
     name lowerneck
     direction 0.0766806 0.997047 0.00422047   
     length 1.68825   
     axis 0 0 0   XYZ
    dof rx ry rz
    limits (-20.0 45.0)
           (-30.0 30.0)
           (-30.0 30.0)
  end
  begin
     id 15 
     name upperneck
     direction -0.143512 0.985106 -0.0947088   
     length 1.69772   
     axis 0 0 0   XYZ
    dof rx ry rz
    limits (-20.0 45.0)
           (-30.0 30.0)
           (-30.0 30.0)
  end
  begin
     id 16
     name head
     direction -0.0539128 0.997849 -0.0372864  
     length 1.71187  
     axis 0 0 0   XYZ
    dof rx ry rz
    limits (-20.0 45.0)
           (-30.0 30.0)
           (-30.0 30.0)
  end
  begin
     id 17 
     name lclavicle
     direction 0.978251 0.207416 -0.00165765  
     length 3.35399  
     axis 0 0 0   XYZ
    dof ry rz
    limits (-20.0 10.0)
           (0.0 20.0)
  end
  begin
     id 18 
     name lhumerus
     direction 1 -4.48966e-011 -1.32191e-028   
     length 5.70706   
     axis 180 -30 -90   XYZ
    dof rx ry rz
    limits (-60.0 90.0)
           (-90.0 90.0)
           (-90.0 90.0)
  end
  begin
     id 19
     name lradius
     direction 1 -4.48976e-011 9.36106e-027   
     length 3.33243   
     axis 180 -30 -90   XYZ
    dof rx
    limits (-10.0 170.0)
  end
  begin
     id 20
     name lwrist
     direction 1 -4.48976e-011 1.1555e-026   
     length 1.66621   
     axis -5.7412e-015 90 90   XYZ
    dof ry
    limits (-180.0 0.0)
 end
  begin
     id 21 
     name lhand
     direction 1 -4.48939e-011 2.31113e-026   
     length 0.792687   
     axis -1.47463e-014 90 90   XYZ
    dof rx rz
    limits (-90.0 90.0)
           (-45.0 45.0)
  end
  begin
     id 22 
     name lfingers
     direction 1 -4.48866e-011 4.62274e-026   
     length 0.639085   
     axis -2.94925e-014 90 90   XYZ
    dof rx
    limits (0.0 90.0)
  end
  begin
     id 23
     name lthumb
     direction 0.707107 -6.34847e-011 0.707107   
     length 0.917601   
     axis -90 45 -6.68868e-015   XYZ
    dof rx rz
    limits (-45.0 45.0)
           (-45.0 45.0)
  end
  begin
     id 24 
     name rclavicle
     direction -0.981813 0.185514 0.0403428   
     length 3.47271  
     axis 0 0 0   XYZ 
    dof ry rz
    limits (-10.0 20.0)
           (-20.0 0.0)
  end
  begin
     id 25 
     name rhumerus
     direction -1 -4.48972e-011 -6.58544e-029  
     length 5.88176   
     axis 180 30 90   XYZ
    dof rx ry rz
    limits (-90.0 60.0)
           (-90.0 90.0)
           (-90.0 90.0)
  end
  begin
     id 26 
     name rradius
     direction -1 -4.48964e-011 8.36306e-027   
     length 3.28156   
     axis 180 30 90   XYZ
    dof rx
    limits (-10.0 170.0)
  end
  begin
     id 27 
     name rwrist
     direction -1 -4.48903e-011 1.15562e-026   
     length 1.64078   
     axis -5.7412e-015 -90 -90   XYZ
    dof ry
    limits (-180.0 0.0)
  end
  begin
     id 28
     name rhand
     direction -1 -4.49055e-011 2.31074e-026   
     length 0.863125   
     axis -1.47463e-014 -90 -90   XYZ
    dof rx rz
    limits (-90.0 90.0)
           (-45.0 45.0)
  end
  begin
     id 29
     name rfingers
     direction -1 -4.48994e-011 4.62188e-026   
     length 0.695873   
     axis -2.94925e-014 -90 -90   XYZ
    dof rx
    limits (0.0 90.0)
  end
  begin
     id 30
     name rthumb
     direction -0.707107 -6.35058e-011 0.707107   
     length 0.999139   
     axis -90 -45 6.68868e-015   XYZ
    dof rx rz
    limits (-45.0 45.0)
           (-45.0 45.0)
  end
:hierarchy
  begin
    root lhipjoint rhipjoint lowerback
    lhipjoint lfemur
    lfemur ltibia
    ltibia lfoot
    lfoot ltoes
    rhipjoint rfemur
    rfemur rtibia
    rtibia rfoot
    rfoot rtoes
    lowerback upperback
    upperback thorax
    thorax lowerneck lclavicle rclavicle
    lowerneck upperneck
    upperneck head
    lclavicle lhumerus
    lhumerus lradius
    lradius lwrist
    lwrist lhand lthumb
    lhand lfingers
    rclavicle rhumerus
    rhumerus rradius
    rradius rwrist
    rwrist rhand rthumb
    rhand rfingers
  end

#!OML:ASF \\Waltz\H\Terrain\Patient Classification 1\Animal2\Wednesday\Animal2.ASF
:FULLY-SPECIFIED
:DEGREES
1431
root -0.38443 17.6302 4.1135 0.743586 -5.58658 6.26524
lowerback 6.06748 -0.400195 0.392455
upperback -3.87321 -0.797256 -4.20397
thorax -7.55414 -0.540463 -4.56204
lowerneck 10.48 5.72022 14.3461
upperneck -14.0412 7.54831 -18.4448
head -4.52482 4.32424 -8.77422
rclavicle 1.42628e-014 2.66371e-014
rhumerus 30.0383 44.0997 -45.9859
rradius 90.6062
rwrist -23.053
rhand -18.8208 19.5697
rfingers 7.12502
rthumb 7.47808 -10.2781
lclavicle 1.42628e-014 2.66371e-014
lhumerus 33.3633 13.8682 13.6908
lradius 71.2088
lwrist -1.26971
lhand -51.299 23.5168
lfingers 7.12502
lthumb -23.8354 52.058
rfemur -22.4109 0.201746 14.2428
rtibia 60.2344
rfoot -17.3861 -1.47347
rtoes 23.3512
lfemur -7.91593 4.04999 -25.8996
ltibia 25.0464
lfoot -17.6063 -4.93502
ltoes -18.1065
1432
root -0.370537 17.6362 4.14416 0.625343 -5.88556 6.18974
lowerback 6.27197 -0.352345 0.858793
upperback -3.93563 -0.699679 -4.27623
thorax -7.7414 -0.523314 -4.92119
lowerneck 10.8435 5.70586 14.3611
upperneck -14.2907 7.54483 -18.4856
head -4.66065 4.33819 -8.82427
rclavicle 8.69683e-016 1.11319e-014
rhumerus 29.9677 44.0772 -46.0619
rradius 90.5634
rwrist -22.9885
rhand -18.0833 19.7639
rfingers 7.12502
rthumb 8.18991 -10.0574
lclavicle 8.69683e-016 1.11319e-014
lhumerus 33.0401 13.6627 13.9589
lradius 71.4419
lwrist -1.35111
lhand -51.1891 23.497
lfingers 7.12502
lthumb -23.73 52.0519
rfemur -22.4129 1.24891 14.262
rtibia 59.6525
rfoot -17.8395 -1.2563
rtoes 21.0324
lfemur -7.35944 4.14261 -25.8725
ltibia 24.5234
lfoot -17.3141 -4.55893
ltoes -19.2879
1433
root -0.358079 17.6424 4.18403 0.395749 -6.23668 6.28873
lowerback 6.43001 -0.312682 1.10279
upperback -3.90297 -0.632017 -4.38798
thorax -7.79829 -0.507495 -5.19079
lowerneck 10.6971 5.79346 14.5281
upperneck -14.1215 7.67185 -18.6576
head -4.54543 4.39922 -8.89483
rclavicle 1.49089e-016 1.82882e-014
rhumerus 30.069 44.0552 -46.0981
rradius 90.5116
rwrist -22.8635
rhand -17.7258 19.627
rfingers 7.12502
rthumb 8.53499 -10.1805
lclavicle 1.49089e-016 1.82882e-014
lhumerus 32.4916 13.5501 13.9837
lradius 71.7913
lwrist -1.1928
lhand -51.1585 23.4356
lfingers 7.12502
lthumb -23.7006 51.9943
rfemur -22.3236 2.41193 14.0372
rtibia 58.9328
rfoot -18.2101 -0.531853
rtoes 20.4411
lfemur -6.67932 4.17142 -26.056
ltibia 24.07
lfoot -17.187 -4.03397
ltoes -19.8922
1434
root -0.352781 17.6508 4.22907 0.142589 -6.51425 6.63739
lowerback 6.54158 -0.32365 0.985217
upperback -3.87522 -0.670098 -4.5331
thorax -7.83877 -0.52524 -5.27553
lowerneck 10.386 5.91824 14.768
upperneck -13.728 7.85701 -18.8911
head -4.31768 4.48316 -8.9771
rclavicle -1.21507e-014 9.93923e-015
rhumerus 30.2821 44.18 -46.1181
rradius 90.4862
rwrist -22.6203
rhand -18.1724 19.5365
rfingers 7.12502
rthumb 8.10398 -10.2881
lclavicle -1.21507e-014 9.93923e-015
lhumerus 31.8691 13.4668 13.972
lradius 72.2288
lwrist -1.02416
lhand -51.361 23.7777
lfingers 7.12502
lthumb -23.8949 52.3112
rfemur -22.1968 3.6145 13.538
rtibia 58.1275
rfoot -18.6061 0.590225
rtoes 22.3918
lfemur -6.00782 4.1877 -26.4998
ltibia 23.6247
lfoot -17.1978 -3.64603
ltoes -20.2163
1435
root -0.35201 17.6526 4.27196 -0.03852 -6.61409 7.21941
lowerback 6.59629 -0.346521 0.548369
upperback -3.9143 -0.758097 -4.67633
thorax -7.91787 -0.551781 -5.16974
lowerneck 10.3525 5.99951 14.9306
upperneck -13.5192 7.97951 -19.1742
head -4.2051 4.55398 -9.088
rclavicle 1.06598e-014 9.93923e-015
rhumerus 30.2418 44.3586 -46.1366
rradius 90.5594
rwrist -22.3888
rhand -18.6747 19.5575
rfingers 7.12502
rthumb 7.61916 -10.2853
lclavicle 1.06598e-014 9.93923e-015
lhumerus 31.4752 13.2557 14.1233
lradius 72.5031
lwrist -1.04966
lhand -51.1429 24.602
lfingers 7.12502
lthumb -23.6857 53.1626
rfemur -22.095 4.63407 12.8005
rtibia 57.2612
rfoot -18.5617 1.49425
rtoes 23.8124
lfemur -5.57518 4.18553 -27.185
ltibia 23.3315
lfoot -17.1434 -3.46806
ltoes -19.9484
1436
root -0.354518 17.6443 4.30949 -0.100483 -6.65836 7.66185
lowerback 6.38487 -0.349704 0.121102
upperback -3.81814 -0.79673 -4.68895
thorax -7.68735 -0.543432 -4.92931
lowerneck 10.4407 6.09612 14.8615
upperneck -13.806 8.04792 -19.4734
head -4.27853 4.61596 -9.19883
rclavicle -1.80149e-014 -2.14687e-014
rhumerus 30.4344 44.2226 -45.7882
rradius 90.6607
rwrist -22.4959
rhand -18.5485 19.5511
rfingers 7.12502
rthumb 7.74096 -10.2872
lclavicle -1.80149e-014 -2.14687e-014
lhumerus 31.1672 13.1314 14.179
lradius 72.5528
lwrist -0.811793
lhand -50.6874 25.2523
lfingers 7.12502
lthumb -23.2488 53.8689
rfemur -22.0863 5.62426 12.2327
rtibia 56.3093
rfoot -18.0037 2.03429
rtoes 23.162
lfemur -5.49205 4.07046 -27.7126
ltibia 23.4079
lfoot -17.1635 -3.16886
ltoes -19.9913
1437
root -0.361688 17.6209 4.33872 -0.129553 -6.74359 7.64582
lowerback 6.10105 -0.347687 0.086789
upperback -3.60512 -0.773687 -4.58877
thorax -7.28809 -0.5189 -4.79758
lowerneck 10.5201 6.17321 14.8041
upperneck -14.2515 8.08335 -19.6845
head -4.40741 4.6555 -9.29084
rclavicle 1.09332e-014 1.51076e-014
rhumerus 30.9058 43.8696 -45.2759
rradius 90.7434
rwrist -22.9625
rhand -18.2814 19.5879
rfingers 7.12502
rthumb 7.99875 -10.2408
lclavicle 1.09332e-014 1.51076e-014
lhumerus 30.9275 13.2747 14.3396
lradius 72.6448
lwrist -0.605823
lhand -50.4048 24.7828
lfingers 7.12502
lthumb -22.9776 53.4333
rfemur -21.9701 6.8289 12.1957
rtibia 55.3085
rfoot -17.4926 2.5768
rtoes 24.3608
lfemur -5.57722 3.91539 -27.7027
ltibia 23.807
lfoot -17.3663 -2.81753
ltoes -19.9133
1438
root -0.371278 17.5926 4.36951 -0.178078 -6.82089 7.30631
lowerback 5.89465 -0.360209 0.475704
upperback -3.44348 -0.736442 -4.48171
thorax -6.99573 -0.510129 -4.90433
lowerneck 10.5846 6.23943 14.8118
upperneck -14.3759 8.16953 -19.7035
head -4.43786 4.70202 -9.30966
rclavicle 4.96962e-015 1.63003e-014
rhumerus 31.1687 43.5898 -45.0381
rradius 90.8304
rwrist -23.2464
rhand -18.2333 19.5383
rfingers 7.12502
rthumb 8.04514 -10.2886
lclavicle 4.96962e-015 1.63003e-014
lhumerus 30.7189 13.4097 14.5024
lradius 72.8258
lwrist -0.461641
lhand -50.3584 24.262
lfingers 7.12502
lthumb -22.9331 52.9181
rfemur -21.6395 7.92538 12.5416
rtibia 54.4248
rfoot -17.5311 2.95884
rtoes 26.692
lfemur -5.64962 3.8766 -27.2926
ltibia 24.3531
lfoot -17.654 -2.80848
ltoes -18.3288
1439
root -0.380968 17.5741 4.40815 -0.229827 -6.79775 7.31454
lowerback 5.71569 -0.402514 0.580265
upperback -3.37143 -0.779608 -4.50918
thorax -6.82157 -0.533679 -4.98557
lowerneck 10.5238 6.30642 14.898
upperneck -14.3177 8.27359 -19.7247
head -4.38512 4.74796 -9.32458
rclavicle 3.10601e-015 6.36111e-015
rhumerus 31.1054 43.4049 -45.1615
rradius 90.9349
rwrist -23.0865
rhand -18.2927 19.4504
rfingers 7.12502
rthumb 7.98781 -10.3786
lclavicle 3.10601e-015 6.36111e-015
lhumerus 30.4425 13.3215 14.3647
lradius 73.0415
lwrist -0.265773
lhand -50.4302 24.9455
lfingers 7.12502
lthumb -23.0019 53.5931
rfemur -21.3269 8.54382 12.4979
rtibia 53.863
rfoot -17.8064 2.72417
rtoes 26.0347
lfemur -5.72926 3.85563 -27.2703
ltibia 24.9018
lfoot -17.9931 -2.88099
ltoes -17.5942
1440
root -0.393439 17.5595 4.44962 -0.369057 -6.66165 7.70834
lowerback 5.63747 -0.475789 0.247838
upperback -3.31655 -0.914118 -4.68089
thorax -6.72859 -0.587649 -4.96226
lowerneck 10.4021 6.3466 15.2279
upperneck -14.2509 8.36647 -19.8176
head -4.30495 4.77869 -9.40125
rclavicle -2.50966e-015 3.45885e-014
rhumerus 30.8883 43.2703 -45.4683
rradius 91.0089
rwrist -22.9199
rhand -18.3046 19.5308
rfingers 7.12502
rthumb 7.97631 -10.2987
lclavicle -2.50966e-015 3.45885e-014
lhumerus 30.3015 13.1318 14.0684
lradius 73.1225
lwrist -0.290705
lhand -50.5547 25.2521
lfingers 7.12502
lthumb -23.1215 53.8847
rfemur -20.9258 8.94649 12.0671
rtibia 53.6457
rfoot -17.8052 2.51665
rtoes 24.6579
lfemur -5.66684 3.82556 -27.6613
ltibia 25.3205
lfoot -18.326 -2.83154
ltoes -18.6117
1441
root -0.412911 17.5441 4.4838 -0.518062 -6.51179 7.90588
lowerback 5.61449 -0.538209 -0.0142243
upperback -3.27029 -1.02238 -4.75248
thorax -6.67251 -0.629867 -4.87581
lowerneck 10.4834 6.39087 15.4397
upperneck -14.2723 8.47097 -19.8312
head -4.29462 4.82384 -9.44769
rclavicle 8.29926e-015 -4.13472e-014
rhumerus 30.6347 43.0962 -45.7807
rradius 90.9305
rwrist -23.3041
rhand -17.6781 20.3036
rfingers 7.12502
rthumb 8.581 -9.50198
lclavicle 8.29926e-015 -4.13472e-014
lhumerus 30.2794 12.9081 13.8349
lradius 72.9986
lwrist -0.427233
lhand -50.5187 24.5467
lfingers 7.12502
lthumb -23.0869 53.1836
rfemur -20.3793 9.4122 11.9612
rtibia 53.5646
rfoot -17.7805 2.33583
rtoes 23.63
lfemur -5.51343 3.70464 -27.8006
ltibia 25.616
lfoot -18.5588 -2.75849
ltoes -18.7884
1442
root -0.438447 17.5336 4.51368 -0.536651 -6.32022 7.95764
lowerback 5.48854 -0.585456 -0.312247
upperback -3.31094 -1.10111 -4.63089
thorax -6.63996 -0.651766 -4.56742
lowerneck 11.0707 6.36198 15.2682
upperneck -14.6223 8.4456 -19.788
head -4.51733 4.84035 -9.4601
rclavicle -1.71452e-015 3.97569e-016
rhumerus 30.4544 43.0719 -45.8333
rradius 90.772
rwrist -23.5829
rhand -16.9443 20.9146
rfingers 7.12502
rthumb 9.28909 -8.86077
lclavicle -1.71452e-015 3.97569e-016
lhumerus 30.0553 12.5747 13.6742
lradius 72.9284
lwrist -0.524284
lhand -50.312 24.1971
lfingers 7.12502
lthumb -22.8885 52.8587
rfemur -19.8326 9.64012 12.0598
rtibia 53.3465
rfoot -18.018 2.13501
rtoes 23.5374
lfemur -5.54164 3.42483 -27.7885
ltibia 25.9565
lfoot -18.7379 -2.61326
ltoes -18.6648
1443
root -0.462127 17.5236 4.54767 -0.543468 -5.96663 8.01966
lowerback 5.42946 -0.705607 -0.699077
upperback -3.41433 -1.28627 -4.45846
thorax -6.71584 -0.722207 -4.14447
lowerneck 11.684 6.33769 15.1768
upperneck -14.893 8.44354 -19.8026
head -4.71016 4.86926 -9.50385
rclavicle 9.28076e-015 -7.55382e-015
rhumerus 30.361 43.3439 -45.6806
rradius 90.8048
rwrist -22.9865
rhand -17.378 20.3189
rfingers 7.12502
rthumb 8.87061 -9.47463
lclavicle 9.28076e-015 -7.55382e-015
lhumerus 29.6116 12.2346 13.527
lradius 73.035
lwrist -0.617875
lhand -49.9252 24.1628
lfingers 7.12502
lthumb -22.5173 52.8698
rfemur -19.1449 9.41285 12.1391
rtibia 52.7953
rfoot -18.5897 2.14397
rtoes 24.7834
lfemur -5.67372 3.2155 -27.8045
ltibia 26.4711
lfoot -18.9427 -2.38362
ltoes -20.3119
1444
root -0.484361 17.5128 4.57662 -0.683722 -5.47272 8.00835
lowerback 5.65768 -0.905401 -0.993827
upperback -3.43705 -1.57996 -4.32748
thorax -6.87922 -0.850623 -3.80379
lowerneck 11.7449 6.39358 15.374
upperneck -14.8144 8.55934 -19.9205
head -4.65875 4.92744 -9.57716
rclavicle -7.45443e-017 3.49861e-014
rhumerus 30.2638 43.4306 -45.6928
rradius 90.905
rwrist -22.4838
rhand -18.1883 19.9974
rfingers 7.12502
rthumb 8.08861 -9.82782
lclavicle -7.45443e-017 3.49861e-014
lhumerus 29.3439 12.0317 13.355
lradius 73.0888
lwrist -0.700235
lhand -49.6648 23.6464
lfingers 7.12502
lthumb -22.2674 52.3835
rfemur -18.1925 8.93884 12.3524
rtibia 51.941
rfoot -19.4168 1.90893
rtoes 25.7231
lfemur -5.7451 2.94164 -27.7432
ltibia 27.1622
lfoot -19.1224 -2.14789
ltoes -21.8202
